<svg width="60" height="60" viewBox="0 0 60 60" fill="none" xmlns="http://www.w3.org/2000/svg">
<path d="M33.4711 58.3284C31.2776 59.3848 28.7224 59.3848 26.5289 58.3284L10.0161 50.3763C7.82263 49.3199 6.22952 47.3222 5.68777 44.9487L1.60945 27.0804C1.0677 24.7068 1.63627 22.2157 3.15422 20.3123L14.5814 5.98301C16.0994 4.07957 18.4015 2.97093 20.8361 2.97093L39.1639 2.97093C41.5985 2.97093 43.9006 4.07957 45.4186 5.98301L56.8458 20.3123C58.3637 22.2157 58.9323 24.7068 58.3906 27.0804L54.3122 44.9487C53.7705 47.3222 52.1774 49.3199 49.9839 50.3763L33.4711 58.3284Z" fill="#EB5E28"/>
<line x1="17.5" y1="38.5" x2="41.5" y2="38.5" stroke="#1A1A1A" stroke-width="3" stroke-linecap="round"/>
<line x1="16.5" y1="29.5" x2="42.5" y2="29.5" stroke="#1A1A1A" stroke-linecap="round"/>
<line x1="17.5" y1="19.5" x2="41.5" y2="19.5" stroke="#252422" stroke-width="3" stroke-linecap="round"/>
</svg>
