<svg width="53" height="53" viewBox="0 0 53 53" fill="none" xmlns="http://www.w3.org/2000/svg">
<path d="M40.651 9.169C40.0221 9.169 39.4072 9.3555 38.8843 9.70493C38.3613 10.0544 37.9538 10.551 37.7131 11.1321C37.4724 11.7131 37.4094 12.3525 37.5321 12.9694C37.6548 13.5862 37.9577 14.1529 38.4024 14.5976C38.8471 15.0423 39.4138 15.3452 40.0306 15.4679C40.6475 15.5906 41.2869 15.5276 41.8679 15.2869C42.449 15.0463 42.9457 14.6387 43.2951 14.1157C43.6445 13.5928 43.831 12.9779 43.831 12.349C43.831 11.5056 43.496 10.6968 42.8996 10.1004C42.3032 9.50403 41.4944 9.169 40.651 9.169ZM52.841 15.582C52.7895 13.3833 52.3777 11.2079 51.622 9.1425C50.9482 7.3753 49.8995 5.77509 48.548 4.452C47.2358 3.09368 45.6318 2.05157 43.8575 1.4045C41.7975 0.625826 39.6198 0.204606 37.418 0.159C34.609 -1.4808e-07 33.708 0 26.5 0C19.292 0 18.391 -1.4808e-07 15.582 0.159C13.3803 0.204606 11.2025 0.625826 9.1425 1.4045C7.37144 2.05812 5.76888 3.09934 4.452 4.452C3.09368 5.76422 2.05157 7.36817 1.4045 9.1425C0.625826 11.2025 0.204606 13.3803 0.159 15.582C-1.4808e-07 18.391 0 19.292 0 26.5C0 33.708 -1.4808e-07 34.609 0.159 37.418C0.204606 39.6198 0.625826 41.7975 1.4045 43.8575C2.05157 45.6318 3.09368 47.2358 4.452 48.548C5.76888 49.9007 7.37144 50.9419 9.1425 51.5955C11.2025 52.3742 13.3803 52.7954 15.582 52.841C18.391 53 19.292 53 26.5 53C33.708 53 34.609 53 37.418 52.841C39.6198 52.7954 41.7975 52.3742 43.8575 51.5955C45.6318 50.9484 47.2358 49.9063 48.548 48.548C49.9054 47.2298 50.9551 45.6282 51.622 43.8575C52.3777 41.7921 52.7895 39.6167 52.841 37.418C52.841 34.609 53 33.708 53 26.5C53 19.292 53 18.391 52.841 15.582ZM48.071 37.1C48.0517 38.7821 47.747 40.4488 47.17 42.029C46.7469 43.1823 46.0673 44.2243 45.1825 45.0765C44.323 45.9523 43.2831 46.6306 42.135 47.064C40.5548 47.641 38.8881 47.9457 37.206 47.965C34.556 48.0975 33.5755 48.124 26.606 48.124C19.6365 48.124 18.656 48.124 16.006 47.965C14.2594 47.9977 12.5202 47.7288 10.865 47.17C9.76732 46.7144 8.77509 46.0379 7.95 45.1825C7.07044 44.3312 6.39933 43.2883 5.989 42.135C5.34202 40.5322 4.98318 38.8276 4.929 37.1C4.929 34.45 4.77 33.4695 4.77 26.5C4.77 19.5305 4.77 18.55 4.929 15.9C4.94088 14.1803 5.25482 12.4761 5.8565 10.865C6.32303 9.74646 7.0391 8.7494 7.95 7.95C8.75511 7.03885 9.75011 6.3152 10.865 5.83C12.4803 5.24712 14.1828 4.94246 15.9 4.929C18.55 4.929 19.5305 4.77 26.5 4.77C33.4695 4.77 34.45 4.77 37.1 4.929C38.7821 4.94829 40.4488 5.25295 42.029 5.83C43.2332 6.27693 44.3141 7.00354 45.1825 7.95C46.0509 8.76402 46.7295 9.75924 47.17 10.865C47.759 12.4787 48.0638 14.1822 48.071 15.9C48.2035 18.55 48.23 19.5305 48.23 26.5C48.23 33.4695 48.2035 34.45 48.071 37.1ZM26.5 12.9055C23.8124 12.9107 21.1867 13.7125 18.9545 15.2095C16.7224 16.7064 14.9841 18.8314 13.9592 21.3159C12.9344 23.8005 12.6689 26.533 13.1965 29.1684C13.724 31.8037 15.0208 34.2235 16.9231 36.1221C18.8254 38.0207 21.2477 39.3128 23.8841 39.8352C26.5204 40.3576 29.2525 40.0868 31.735 39.0571C34.2175 38.0274 36.3391 36.285 37.8317 34.0499C39.3244 31.8149 40.121 29.1876 40.121 26.5C40.1245 24.7115 39.7744 22.94 39.0908 21.2873C38.4072 19.6347 37.4036 18.1334 36.1377 16.87C34.8718 15.6066 33.3687 14.6059 31.7147 13.9256C30.0607 13.2452 28.2885 12.8985 26.5 12.9055ZM26.5 35.3245C24.7547 35.3245 23.0486 34.807 21.5974 33.8373C20.1462 32.8677 19.0151 31.4895 18.3472 29.877C17.6793 28.2645 17.5046 26.4902 17.8451 24.7784C18.1856 23.0666 19.026 21.4943 20.2601 20.2601C21.4943 19.026 23.0666 18.1856 24.7784 17.8451C26.4902 17.5046 28.2645 17.6793 29.877 18.3472C31.4895 19.0151 32.8677 20.1462 33.8373 21.5974C34.807 23.0486 35.3245 24.7547 35.3245 26.5C35.3245 27.6589 35.0962 28.8064 34.6528 29.877C34.2093 30.9476 33.5593 31.9204 32.7399 32.7399C31.9204 33.5593 30.9476 34.2093 29.877 34.6528C28.8064 35.0962 27.6589 35.3245 26.5 35.3245Z" fill="#252422"/>
</svg>
