<svg width="100" height="100" viewBox="0 0 100 100" fill="none" xmlns="http://www.w3.org/2000/svg">
<rect width="100" height="100" fill="white"/>
<path d="M67.777 49.5728L45.2287 88.065L5 19.2094L9.71277 11L27.6409 41.4333L32.3972 33.3125L35.8059 27.4832L45.3049 27.4295L32.1277 49.5755L45.2232 71.5442L49.9877 63.5202L53.3964 57.6909H46.5763L41.7465 49.4922L67.777 49.5728Z" fill="#CC4613"/>
<path d="M64.3656 27.4295L67.777 33.2588L62.9716 41.4333L49.9877 19.0563L24.156 19.2416L28.9858 27.4832L32.3972 33.3125L27.6409 41.4333L9.71277 11L90.2055 11.094L94.9999 19.255L59.4568 19.2094L64.3656 27.4295Z" fill="#EB5E28"/>
<path d="M94.9999 19.2551L54.7903 88.0355L45.2286 88.0651L67.777 49.5728L80.7173 27.4833L71.1856 27.4295H64.3656L59.4568 19.2094L94.9999 19.2551Z" fill="#92320E"/>
<path d="M80.7173 27.4834L67.7769 49.5729L41.7465 49.4923L46.5763 41.4334H62.9716L67.7769 33.2589L71.1856 27.4296L80.7173 27.4834Z" fill="#571E08"/>
<path d="M46.5764 57.691L49.9877 63.5203L45.2232 71.5443L32.1277 49.5756L45.3049 27.4296L49.9877 35.6068L46.5764 41.4334L41.7465 49.4923L46.5764 57.691Z" fill="#EB5E28"/>
<path d="M62.9718 41.4334H53.3965L49.9879 35.6068L45.305 27.4296L35.806 27.4834H28.986L24.1561 19.2418L49.9879 19.0564L62.9718 41.4334Z" fill="#92320E"/>
</svg>
