<svg width="121" height="66" viewBox="0 0 121 66" fill="none" xmlns="http://www.w3.org/2000/svg">
<path d="M3 63H117.914" stroke="#EB5E28" stroke-width="5" stroke-miterlimit="10" stroke-linecap="round"/>
<path d="M117.914 21.7108V27.1878L112.58 30.1319V24.4681L117.914 21.7108Z" fill="#CC4613"/>
<path d="M107.202 32.9254V38.5201L101.822 41.2382V52.426L96.5117 55.4158V21.6527L101.822 24.4571V35.912L107.202 32.9254Z" fill="#CC4613"/>
<path d="M112.58 24.5561V30.132L101.822 24.4572L96.5118 21.6528V55.4158L91.0898 52.4261V13.2175L112.58 24.5561Z" fill="#92320E"/>
<path d="M117.914 21.7109L112.58 24.4682V24.5562L91.0898 13.2175L96.5511 10.3691L117.914 21.7109Z" fill="#EB5E28"/>
<path d="M107.202 32.9254L101.822 35.912V30.088L107.202 32.9254Z" fill="#EB5E28"/>
<path d="M67.9964 34.3402L54.9917 56.8401L31.79 16.592L34.5081 11.7933L44.8481 29.5825L47.5912 24.8357L49.5587 21.4283L55.0357 21.3969L47.4358 34.3418L54.9886 47.1816L57.7365 42.4913L59.704 39.0855H55.7706L52.985 34.2931L67.9964 34.3402Z" fill="#CC4613"/>
<path d="M66.0306 21.3969L67.9966 24.8042L65.2267 29.5825L57.7367 16.5024L42.8399 16.6092L45.6239 21.4283L47.5914 24.8357L44.8483 29.5825L34.5083 11.7933L80.9321 11.8483L83.6988 16.6171L63.1979 16.592L66.0306 21.3969Z" fill="#EB5E28"/>
<path d="M83.6989 16.617L60.5066 56.8227L54.9919 56.84L67.9966 34.3402L75.4599 21.4282L69.9641 21.3968H66.0307L63.198 16.5919L83.6989 16.617Z" fill="#92320E"/>
<path d="M75.4598 21.4283L67.9965 34.3402L52.9851 34.2931L55.7707 29.5825H65.2266L67.9965 24.8042L69.964 21.3969L75.4598 21.4283Z" fill="#571E08"/>
<path d="M55.7706 39.0855L57.7365 42.4913L54.9886 47.1816L47.4358 34.3418L55.0357 21.3969L57.7365 26.1751L55.7706 29.5825L52.985 34.2931L55.7706 39.0855Z" fill="#EB5E28"/>
<path d="M65.2266 29.5824H59.7041L57.7366 26.175L55.0358 21.3968L49.5589 21.4282H45.6239L42.8398 16.6092L57.7366 16.5024L65.2266 29.5824Z" fill="#92320E"/>
<path d="M19.3571 23.1114V29.7896L13.8597 26.5392L8.36076 23.2857V55.3152L3 51.7508V13.9177L19.3571 23.1114Z" fill="#92320E"/>
<path d="M24.7744 32.6647V45.4228L8.36084 55.3153V23.2858L13.8598 26.5393V45.4385L19.3572 42.2212V35.8162L24.7744 32.6647Z" fill="#EB5E28"/>
<path d="M24.7745 20.0292V26.6037L19.3572 29.7897V23.2167L24.7745 20.0292Z" fill="#CC4613"/>
<path d="M19.3571 23.2167V23.1115L3 13.9178L8.41101 10.6863L24.7744 20.0291L19.3571 23.2167Z" fill="#EB5E28"/>
<path d="M24.7744 32.6648L19.3571 35.8162L13.9414 32.9364L19.3571 29.7897L24.7744 32.6648Z" fill="#CC4613"/>
<path d="M19.357 35.8162V42.2212L13.8596 38.9205V32.9819L13.9413 32.9364L19.357 35.8162Z" fill="#92320E"/>
<path d="M19.357 42.2212L13.8596 45.4385V38.9205L19.357 42.2212Z" fill="#571E08"/>
<path d="M3 3H117.914" stroke="#EB5E28" stroke-width="5" stroke-miterlimit="10" stroke-linecap="round"/>
</svg>
